Patient4_TMGait_0pt6_02_left_05_GRF.mot
version=1
nRows=39
nColumns=19
inDegrees=no
endheader
time	F1x	F1y	F1z	M1x	M1y	M1z	F2x	F2y	F2z	M2x	M2y	M2z	EC1x	EC1y	EC1z	EC2x	EC2y	EC2z
6.07	-13.7713	-3.9831	-7.5654	1.2907	2.3188	-6.6038	-35.624	705.8365	-49.2854	250.5141	59.3054	680.3334	-0.0592	0.0182	-0.0073	-0.0462	0.0165	0.9585
6.0817	-9.5059	-1.7074	-4.9888	0.50581	1.3649	-3.4174	-34.2486	706.4189	-52.0938	251.2491	61.1963	677.6796	-0.0592	0.0182	-0.0073	-0.0462	0.0165	0.9585
6.0934	-5.8478	0.187	-2.8351	-0.16135	0.60186	-0.77554	-32.6939	708.0109	-54.2338	252.327	62.4213	675.4543	-0.0592	0.0182	-0.0073	-0.0462	0.0165	0.9585
6.1051	-3.0171	1.6301	-1.2029	-0.67897	0.041104	1.2078	-30.9624	710.8935	-55.5605	253.8655	62.8505	673.9959	-0.0592	0.0182	-0.0073	-0.0462	0.0165	0.9585
6.1169	-1.0545	2.6706	-0.095259	-1.054	-0.32741	2.6053	-28.9998	715.1258	-56.1019	255.9304	62.4938	673.3951	-0.0592	0.0182	-0.0073	-0.0462	0.0165	0.9585
6.1286	0.16349	3.3567	0.58607	-1.2984	-0.5534	3.4784	-26.7036	720.6041	-55.9801	258.5333	61.4287	673.5596	-0.0592	0.0182	-0.0073	-0.0462	0.0165	0.9585
6.1403	0.77535	3.763	0.92573	-1.4358	-0.6652	3.9657	-23.925	727.1184	-55.3432	261.6448	59.7427	674.2533	-0.0592	0.0182	-0.0073	-0.0462	0.0165	0.9585
6.152	0.96893	3.9022	1.0463	-1.4721	-0.71335	4.103	-20.5575	734.4026	-54.299	265.2049	57.4885	675.1884	-0.0592	0.0182	-0.0073	-0.0462	0.0165	0.9585
6.1637	0.85915	3.7916	1.0188	-1.4118	-0.72039	3.9532	-16.4928	742.1741	-52.9431	269.1225	54.7019	676.0794	-0.0592	0.0182	-0.0073	-0.0462	0.0165	0.9585
6.1754	0.59578	3.3721	0.93018	-1.2346	-0.71904	3.466	-11.7286	750.059	-51.3457	273.2465	51.4227	676.6109	-0.0592	0.0182	-0.0073	-0.0462	0.0165	0.9585
6.1871	0.24587	2.587	0.81251	-0.91673	-0.71668	2.6239	-6.3272	757.561	-49.6164	277.3536	47.7498	676.4082	-0.0592	0.0182	-0.0073	-0.0462	0.0165	0.9585
6.1989	-0.095831	1.3317	0.70734	-0.4214	-0.721	1.3088	-0.46214	764.1065	-47.8575	281.1681	43.8187	675.1138	-0.0592	0.0182	-0.0073	-0.0462	0.0165	0.9585
6.2106	-0.38554	-0.44995	0.60834	0.27319	-0.71054	-0.5176	5.5766	769.0178	-46.1911	284.3688	39.8278	672.3229	-0.0592	0.0182	-0.0073	-0.0462	0.0165	0.9585
6.2223	-0.52896	-2.7697	0.51778	1.1693	-0.6612	-2.8964	11.4217	771.6849	-44.713	286.6505	35.9908	667.7601	-0.0592	0.0182	-0.0073	-0.0462	0.0165	0.9585
6.234	-0.46687	-5.4948	0.40343	2.2157	-0.52465	-5.6784	16.6955	771.6145	-43.5185	287.7581	32.5343	661.2404	-0.0592	0.0182	-0.0073	-0.0462	0.0165	0.9585
6.2457	-0.05819	-8.2797	0.24461	3.2781	-0.2255	-8.5341	21.0619	768.6112	-42.6706	287.5585	29.6488	652.8044	-0.0592	0.0182	-0.0073	-0.0462	0.0165	0.9585
6.2574	0.79976	-10.4508	0.0064368	4.0946	0.32275	-10.7563	24.3346	762.8527	-42.2286	286.0762	27.4775	642.749	-0.0592	0.0182	-0.0073	-0.0462	0.0165	0.9585
6.2691	2.2713	-10.928	-0.33281	4.2413	1.211	-11.2534	26.4472	754.799	-42.2296	283.4641	26.0978	631.5454	-0.0592	0.0182	-0.0073	-0.0462	0.0165	0.9585
6.2809	4.4464	-8.1234	-0.78438	3.1003	2.4931	-8.3612	27.5176	745.0697	-42.6736	279.9581	25.4896	619.7179	-0.0592	0.0182	-0.0073	-0.0462	0.0165	0.9585
6.2926	7.3766	-0.00031397	-1.3355	-0.12718	4.1754	0.010079	27.8126	734.2445	-43.5057	275.8042	25.5253	607.6906	-0.0592	0.0182	-0.0073	-0.0462	0.0165	0.9585
6.3043	10.9236	15.8975	-1.9389	-6.392	6.1518	16.426	27.7071	722.6575	-44.5965	271.1777	25.9725	595.6337	-0.0592	0.0182	-0.0073	-0.0462	0.0165	0.9585
6.316	14.7154	42.0344	-2.4755	-16.6511	8.1442	43.4361	27.5699	710.2932	-45.7615	266.1338	26.5514	583.404	-0.0592	0.0182	-0.0073	-0.0462	0.0165	0.9585
6.3277	17.9387	80.3567	-2.7566	-31.6482	9.6353	83.081	27.6541	696.6901	-46.7461	260.5662	26.9667	570.5082	-0.0592	0.0182	-0.0073	-0.0462	0.0165	0.9585
6.3394	19.32	131.2822	-2.4646	-51.5278	9.7947	135.8052	28.0388	680.9328	-47.2636	254.1969	26.9636	556.1231	-0.0592	0.0182	-0.0073	-0.0462	0.0165	0.9585
6.3511	17.2102	192.6362	-1.1974	-75.4131	7.581	199.4018	28.6447	661.767	-47.0355	246.6132	26.3527	539.1898	-0.0592	0.0182	-0.0073	-0.0462	0.0165	0.9585
6.3629	10.9121	259.1773	1.5122	-101.2202	2.2729	268.43	29.2836	637.836	-45.8336	237.3584	25.0307	518.594	-0.0592	0.0182	-0.0073	-0.0462	0.0165	0.9585
6.3746	1.9818	323.2848	6.1931	-125.9447	-6.0483	334.8509	29.7526	608.0862	-43.5273	226.0736	22.9796	493.4891	-0.0592	0.0182	-0.0073	-0.0462	0.0165	0.9585
6.3863	-7.3926	378.3327	13.1694	-147.019	-16.8095	391.4596	29.9091	572.0673	-40.17	212.6069	20.3033	463.4932	-0.0592	0.0182	-0.0073	-0.0462	0.0165	0.9585
6.398	-15.9027	422.6296	21.2207	-163.8177	-28.2346	436.2503	29.6381	530.1503	-36.0044	197.0759	17.221	428.9048	-0.0592	0.0182	-0.0073	-0.0462	0.0165	0.9585
6.4097	-22.5446	457.5372	29.2909	-176.9523	-38.8547	470.5299	28.9138	483.2696	-31.4413	179.7888	14.0472	390.461	-0.0592	0.0182	-0.0073	-0.0462	0.0165	0.9585
6.4214	-27.0129	485.7459	36.3996	-187.5444	-47.5501	497.1666	27.7156	432.7373	-26.8945	161.182	11.0858	349.2315	-0.0592	0.0182	-0.0073	-0.0462	0.0165	0.9585
6.4331	-29.2877	509.8471	41.8818	-196.6618	-53.6733	518.8772	26.0269	380.0516	-22.6163	141.7738	8.5114	306.4141	-0.0592	0.0182	-0.0073	-0.0462	0.0165	0.9585
6.4449	-29.6456	531.7809	45.6241	-205.0847	-57.2352	537.7513	23.7836	326.838	-18.7513	122.1364	6.4399	263.3346	-0.0592	0.0182	-0.0073	-0.0462	0.0165	0.9585
6.4566	-28.3907	553.0048	47.6487	-213.3767	-58.4221	555.2573	20.9685	274.744	-15.2977	102.8657	4.8616	221.302	-0.0592	0.0182	-0.0073	-0.0462	0.0165	0.9585
6.4683	-25.984	574.6141	48.5172	-221.9181	-57.9863	572.6693	17.6253	225.388	-12.2775	84.551	3.7776	181.6183	-0.0592	0.0182	-0.0073	-0.0462	0.0165	0.9585
6.48	-22.8012	597.4976	48.5588	-231.0101	-56.4314	590.9271	13.9289	180.2292	-9.6951	67.7331	3.1255	145.4172	-0.0592	0.0182	-0.0073	-0.0462	0.0165	0.9585
6.4917	-19.3122	622.1922	48.3748	-240.7997	-54.5275	610.7183	10.1262	140.3975	-7.5967	52.8365	2.8531	113.5647	-0.0592	0.0182	-0.0073	-0.0462	0.0165	0.9585
6.5034	-15.8422	648.5652	48.295	-251.2044	-52.7331	631.9457	6.5625	106.5197	-5.9491	40.112	2.8154	86.4962	-0.0592	0.0182	-0.0073	-0.0462	0.0165	0.9585
6.5151	-12.7923	676.0077	48.7397	-261.9473	-51.5926	654.0955	3.5082	78.6493	-4.6807	29.6024	2.8672	64.2276	-0.0592	0.0182	-0.0073	-0.0462	0.0165	0.9585
